name GIL03_slow3.mot
datacolumns 153
datarows 4
range 1.20833325 1.23333335
endheader

                time	           pelvis_tx	           pelvis_ty	           pelvis_tz	         pelvis_tilt	         pelvis_list	     pelvis_rotation	       hip_flexion_r	     hip_adduction_r	      hip_rotation_r	        knee_angle_r	       ankle_angle_r	    subtalar_angle_r	         mtp_angle_r	       hip_flexion_l	     hip_adduction_l	      hip_rotation_l	        knee_angle_l	       ankle_angle_l	    subtalar_angle_l	         mtp_angle_l	    lumbar_extension	      lumbar_bending	     lumbar_rotation	     ground_force_vx	     ground_force_vy	     ground_force_vz	     ground_force_px	     ground_force_py	     ground_force_pz	     ground_force_vx	     ground_force_vy	     ground_force_vz	     ground_force_px	     ground_force_py	     ground_force_pz	     ground_torque_x	     ground_torque_y	     ground_torque_z	     ground_torque_x	     ground_torque_y	     ground_torque_z	    ground_marker_px	    ground_marker_py	    ground_marker_pz	    ground_marker_px	    ground_marker_py	    ground_marker_pz	    ground_marker_px	    ground_marker_py	    ground_marker_pz	    ground_marker_px	    ground_marker_py	    ground_marker_pz	    ground_marker_px	    ground_marker_py	    ground_marker_pz	    ground_marker_px	    ground_marker_py	    ground_marker_pz	    ground_marker_px	    ground_marker_py	    ground_marker_pz	    ground_marker_px	    ground_marker_py	    ground_marker_pz	    ground_marker_px	    ground_marker_py	    ground_marker_pz	    ground_marker_px	    ground_marker_py	    ground_marker_pz	    ground_marker_px	    ground_marker_py	    ground_marker_pz	    ground_marker_px	    ground_marker_py	    ground_marker_pz	    ground_marker_px	    ground_marker_py	    ground_marker_pz	    ground_marker_px	    ground_marker_py	    ground_marker_pz	    ground_marker_px	    ground_marker_py	    ground_marker_pz	    ground_marker_px	    ground_marker_py	    ground_marker_pz	    ground_marker_px	    ground_marker_py	    ground_marker_pz	    ground_marker_px	    ground_marker_py	    ground_marker_pz	    ground_marker_px	    ground_marker_py	    ground_marker_pz	    ground_marker_px	    ground_marker_py	    ground_marker_pz	    ground_marker_px	    ground_marker_py	    ground_marker_pz	    ground_marker_px	    ground_marker_py	    ground_marker_pz	    ground_marker_px	    ground_marker_py	    ground_marker_pz	    ground_marker_px	    ground_marker_py	    ground_marker_pz	    ground_marker_px	    ground_marker_py	    ground_marker_pz	    ground_marker_px	    ground_marker_py	    ground_marker_pz	    ground_marker_px	    ground_marker_py	    ground_marker_pz	    ground_marker_px	    ground_marker_py	    ground_marker_pz	    ground_marker_px	    ground_marker_py	    ground_marker_pz	    ground_marker_px	    ground_marker_py	    ground_marker_pz	    ground_marker_px	    ground_marker_py	    ground_marker_pz	    ground_marker_px	    ground_marker_py	    ground_marker_pz	    ground_marker_px	    ground_marker_py	    ground_marker_pz	    ground_marker_px	    ground_marker_py	    ground_marker_pz	    ground_marker_px	    ground_marker_py	    ground_marker_pz	    ground_marker_px	    ground_marker_py	    ground_marker_pz	    ground_marker_px	    ground_marker_py	    ground_marker_pz	
          1.20833325	          1.42470658	          0.90708005	         -0.22167067	          3.42254448	          0.30297741	         -1.41016042	         15.92187309	         -2.80081820	         -0.01624298	        -58.01457214	          7.55546427	          0.00000000	          0.00000000	         -1.50723553	          4.02743769	          0.01641655	        -13.38920689	         10.24642372	          0.00000000	          0.00000000	        -15.71485329	         -0.74919361	          4.99059486	          0.00000000	          0.00000000	          0.00000000	          1.01416675	          0.00000000	         -0.14976706	        -16.25960661	        385.66980766	          6.43281635	          1.39619702	          0.00000000	         -0.23845132	          0.00000000	          0.00000000	          0.00000000	          0.00000000	         -0.66650098	          0.00000000	          1.36619186	          0.84283054	         -0.22451654	          1.37079382	          0.82597560	         -0.16461058	          1.36387205	          0.82452309	         -0.28186929	          1.49565220	          0.46879697	         -0.14350562	          1.37515795	          0.46750441	         -0.25698546	          1.25606692	          0.16906717	         -0.14968105	          1.29326725	          0.06856472	         -0.23183393	          1.42470658	          0.90708005	         -0.22167067	          1.42219353	          0.90692431	         -0.12167073	          1.42721963	          0.90723580	         -0.32167062	          1.26512206	          0.93005258	         -0.19455495	          1.26614583	          0.93209946	         -0.24972610	          1.50214541	          0.47427759	         -0.08916592	          1.39032793	          0.46434218	         -0.30923602	          1.50128126	          0.45960504	         -0.19649559	          1.35724831	          0.45504898	         -0.21651798	          1.24576378	          0.17655435	         -0.11334874	          1.29905307	          0.06498795	         -0.26972827	          1.28257966	          0.17134079	         -0.17671755	          1.31128824	          0.08045062	         -0.20603190	          1.30116987	          1.34453249	         -0.20454100	          1.40655851	          1.27511740	         -0.16413794	          1.39986408	          1.27583432	         -0.27059570	          1.38759494	          1.28586280	         -0.22136776	          1.44802344	          1.12121594	         -0.22536281	          1.57683575	          0.67856067	         -0.15165454	          1.49998856	          0.63343114	         -0.23756683	          1.49129939	          0.69834340	         -0.10510611	          1.43878353	          0.67142081	         -0.30864587	          1.51378441	          0.61601096	         -0.10358856	          1.43824685	          0.58329546	         -0.29842404	          1.31361735	          0.27788794	         -0.04359967	          1.29046810	          0.18052357	         -0.34527883	          1.32410538	          0.27983034	         -0.08459830	          1.29927170	          0.18773131	         -0.30392388	          1.33562684	          0.09513063	         -0.10674382	          1.41994178	          0.03724043	         -0.23784795	
          1.21666670	          1.42930448	          0.90700364	         -0.22184095	          3.54588223	          0.19169571	         -1.25129294	         16.55991364	         -2.62741375	          0.10231590	        -57.34485626	          7.68006039	          0.00000000	          0.00000000	         -2.08881474	          3.97955489	          0.11293888	        -13.21114445	         10.45244980	          0.00000000	          0.00000000	        -15.92074108	         -0.72969699	          4.94605207	          0.00000000	          0.00000000	          0.00000000	          1.01575458	          0.00000000	         -0.14978079	        -15.01575232	        386.65253747	          6.15780414	          1.39697571	          0.00000000	         -0.23785318	          0.00000000	          0.00000000	          0.00000000	          0.00000000	         -0.72764709	          0.00000000	          1.37090135	          0.84259307	         -0.22460121	          1.37574077	          0.82586920	         -0.16449553	          1.36846709	          0.82422423	         -0.28173041	          1.50544012	          0.47038403	         -0.14428893	          1.37698412	          0.46721727	         -0.25672695	          1.27336359	          0.16469176	         -0.14984670	          1.29324996	          0.06864262	         -0.23168445	          1.42930448	          0.90700364	         -0.22184095	          1.42709410	          0.90699381	         -0.12180971	          1.43151486	          0.90701342	         -0.32187220	          1.26978898	          0.92958492	         -0.19414161	          1.27059472	          0.93171984	         -0.24920459	          1.51218534	          0.47593173	         -0.08998677	          1.39205635	          0.46391603	         -0.30899718	          1.51093733	          0.46140236	         -0.19740376	          1.35896540	          0.45516354	         -0.21608672	          1.26299214	          0.17190443	         -0.11347833	          1.29906046	          0.06504143	         -0.26957273	          1.29963672	          0.16756944	         -0.17701571	          1.31154871	          0.08021168	         -0.20584020	          1.30614340	          1.34434569	         -0.20479813	          1.41147470	          1.27483046	         -0.16452472	          1.40454650	          1.27542353	         -0.27097425	          1.39241242	          1.28555608	         -0.22176208	          1.45255125	          1.12078345	         -0.22564821	          1.58382010	          0.68126529	         -0.15283759	          1.50314033	          0.63223290	         -0.23755026	          1.49827421	          0.69991791	         -0.10580944	          1.44205141	          0.67078596	         -0.30850986	          1.52184308	          0.61792278	         -0.10446072	          1.44081628	          0.58273399	         -0.29825255	          1.32849717	          0.27485040	         -0.04392192	          1.29106069	          0.18050587	         -0.34511119	          1.33878517	          0.27710170	         -0.08496113	          1.29983008	          0.18770340	         -0.30372277	          1.35497820	          0.09299085	         -0.10692822	          1.41972327	          0.03719667	         -0.23789440	
          1.22499990	          1.43389702	          0.90689147	         -0.22198775	          3.65799332	          0.08220853	         -1.08585894	         17.16821098	         -2.45644164	          0.20340347	        -56.57243347	          7.75956297	          0.00000000	          0.00000000	         -2.64478207	          3.92413497	          0.20577812	        -13.05858517	         10.66590023	          0.00000000	          0.00000000	        -16.09735870	         -0.69608802	          4.95382452	          0.00000000	          0.00000000	          0.00000000	          1.01727728	          0.00000000	         -0.14980632	        -13.72352129	        387.62931962	          6.00138267	          1.39778137	          0.00000000	         -0.23730849	          0.00000000	          0.00000000	          0.00000000	          0.00000000	         -0.77911731	          0.00000000	          1.37563586	          0.84239173	         -0.22468904	          1.38067281	          0.82573670	         -0.16435574	          1.37303507	          0.82390493	         -0.28156468	          1.51493645	          0.47189599	         -0.14509462	          1.37887430	          0.46691802	         -0.25648057	          1.29081535	          0.16014214	         -0.15006317	          1.29321706	          0.06872523	         -0.23154126	          1.43389702	          0.90689147	         -0.22198775	          1.43199980	          0.90702462	         -0.12193049	          1.43579435	          0.90675837	         -0.32204503	          1.27445793	          0.92911011	         -0.19370209	          1.27503932	          0.93134332	         -0.24863356	          1.52192855	          0.47750306	         -0.09082980	          1.39384079	          0.46348846	         -0.30877295	          1.52008533	          0.46312326	         -0.19833471	          1.36179876	          0.45486045	         -0.21580067	          1.28036988	          0.16707118	         -0.11366079	          1.29906356	          0.06509507	         -0.26942119	          1.31688154	          0.16355211	         -0.17728958	          1.31212199	          0.07990141	         -0.20567547	          1.31116068	          1.34405255	         -0.20513833	          1.41641688	          1.27449226	         -0.16490564	          1.40915251	          1.27500796	         -0.27136514	          1.39722669	          1.28521860	         -0.22213034	          1.45707345	          1.12033474	         -0.22604606	          1.59062135	          0.68381685	         -0.15399167	          1.50632167	          0.63100642	         -0.23754247	          1.50515652	          0.70140034	         -0.10646576	          1.44534576	          0.67018133	         -0.30837297	          1.52968013	          0.61968637	         -0.10531620	          1.44388711	          0.58224738	         -0.29810867	          1.34336340	          0.27164125	         -0.04428638	          1.29169476	          0.18048294	         -0.34495842	          1.35347402	          0.27419227	         -0.08534437	          1.30041897	          0.18768165	         -0.30353180	          1.37443113	          0.09075338	         -0.10717061	          1.41948366	          0.03714546	         -0.23796289	
          1.23333335	          1.43848991	          0.90674525	         -0.22211680	          3.75825500	         -0.02604007	         -0.91401643	         17.74363136	         -2.28904486	          0.29021931	        -55.69451141	          7.79221249	          0.00000000	          0.00000000	         -3.17314339	          3.86079836	          0.29767609	        -12.93362141	         10.88875580	          0.00000000	          0.00000000	        -16.24784851	         -0.64392877	          4.91170597	          0.00000000	          0.00000000	          0.00000000	          1.01869427	          0.00000000	         -0.14985074	        -12.37923835	        388.44904474	          5.97548724	          1.39866614	          0.00000000	         -0.23681042	          0.00000000	          0.00000000	          0.00000000	          0.00000000	         -0.82258734	          0.00000000	          1.38038099	          0.84220290	         -0.22472829	          1.38559496	          0.82558054	         -0.16419622	          1.37758076	          0.82356673	         -0.28137705	          1.52412784	          0.47331113	         -0.14591552	          1.38084114	          0.46661124	         -0.25625059	          1.30842674	          0.15543744	         -0.15032798	          1.29317510	          0.06881841	         -0.23140369	          1.43848991	          0.90674525	         -0.22211680	          1.43691623	          0.90701914	         -0.12204084	          1.44006348	          0.90647137	         -0.32219276	          1.27913010	          0.92863244	         -0.19323562	          1.27948213	          0.93097377	         -0.24800941	          1.53136432	          0.47897103	         -0.09168825	          1.39569652	          0.46306434	         -0.30856684	          1.52884650	          0.46473050	         -0.19924046	          1.36451542	          0.45454574	         -0.21570131	          1.29789829	          0.16207604	         -0.11389543	          1.29906869	          0.06515415	         -0.26927304	          1.33411062	          0.15943861	         -0.17762482	          1.31251132	          0.07970612	         -0.20551178	          1.31609917	          1.34374797	         -0.20547929	          1.42134726	          1.27413142	         -0.16532496	          1.41383672	          1.27458358	         -0.27175352	          1.40204608	          1.28485656	         -0.22246285	          1.46170342	          1.11989141	         -0.22644970	          1.59722567	          0.68619508	         -0.15512253	          1.50953221	          0.62975430	         -0.23754351	          1.51187527	          0.70275164	         -0.10708313	          1.44865894	          0.66954231	         -0.30832154	          1.53727615	          0.62132007	         -0.10614117	          1.44692731	          0.58174640	         -0.29808715	          1.35820711	          0.26827624	         -0.04469086	          1.29237592	          0.18045583	         -0.34482145	          1.36822224	          0.27111489	         -0.08567864	          1.30107796	          0.18769088	         -0.30338067	          1.39398289	          0.08843312	         -0.10747596	          1.41924584	          0.03709235	         -0.23804127	
